<svg width="8" height="4" viewBox="0 0 8 4" fill="none" xmlns="http://www.w3.org/2000/svg">
<path d="M7.84169 0.792626L4.29551 3.89861C4.2533 3.93548 4.20756 3.96165 4.15831 3.97714C4.10906 3.99262 4.05629 4.00024 4 3.99999C3.94371 3.99999 3.89094 3.99238 3.84169 3.97714C3.79244 3.9619 3.7467 3.93572 3.70449 3.89861L0.147757 0.792626C0.0492524 0.706604 4.05556e-08 0.599078 4.20943e-08 0.470046C4.3633e-08 0.341014 0.0527705 0.230415 0.158311 0.138249C0.263852 0.0460835 0.386983 4.81452e-07 0.527705 4.8313e-07C0.668426 4.84808e-07 0.791557 0.0460835 0.897098 0.138249L4 2.84792L7.1029 0.138249C7.20141 0.0522278 7.32285 0.00921711 7.46723 0.00921711C7.61161 0.00921711 7.73643 0.0553001 7.84169 0.147466C7.94723 0.239632 8 0.347158 8 0.470046C8 0.592934 7.94723 0.70046 7.84169 0.792626Z" fill="black"/>
</svg>

